<svg xmlns="http://www.w3.org/2000/svg" width="186.2" height="200" viewBox="0 0 186.2 200"><g transform="translate(-24 -268)"><g transform="translate(-7.9 238)"><path d="M125,153.4H100.3L88.6,182.6H66.8L125,52.1v.1h0V30h0L31.9,63.2,46.1,186.3,125,230h0Z" fill="#fff"/><g opacity="0.9"><path d="M125,153.4h24.7l11.7,29.2h21.8L125,52.1v.1h0V30h0l93.1,33.2L203.9,186.3,125,230h0Z" fill="#fff"/></g></g><path d="M305.1,277V421H236.5Z" transform="translate(-188 5)" fill="#fff"/><path d="M236.5,277V421h68.6Z" transform="translate(-120 5)" fill="#ededed"/><path d="M113.273-8.565Q93.7,2.1,69.66,2.1q-27.794,0-45.012-17.306T7.429-61.007q0-29.1,18.835-47.765t47.853-18.66q20.889,0,35.136,6.118V-99.9q-14.421-9.614-34.349-9.614-20.015,0-32.82,13.2T29.28-62.143q0,21.588,11.013,33.956T70.184-15.82q12.936,0,22.375-4.982v-29.8h-26.4v-17.48h47.11Z" transform="translate(50 428)" fill="#505050"/></g></svg>