<svg xmlns="http://www.w3.org/2000/svg" width="186.2" height="238" viewBox="0 0 186.2 238"><g transform="translate(-24 -235)"><g transform="translate(-7.9 238)"><path d="M125,153.4H100.3L88.6,182.6H66.8L125,52.1v.1h0V30h0L31.9,63.2,46.1,186.3,125,230h0Z" fill="#fff"/><g opacity="0.9"><path d="M125,153.4h24.7l11.7,29.2h21.8L125,52.1v.1h0V30h0l93.1,33.2L203.9,186.3,125,230h0Z" fill="#fff"/></g></g><path d="M305.1,277V421H236.5Z" transform="translate(-188 5)" fill="#fff"/><path d="M236.5,277V421h68.6Z" transform="translate(-120 5)" fill="#ededed"/><text transform="translate(50 428)" fill="#505050" font-size="179" font-family="SegoeUI-Semibold, Segoe UI" font-weight="600"><tspan x="0" y="0">G</tspan></text></g></svg>